<?xml version="1.0" standalone="yes"?>

<svg version="1.1" viewBox="0.0 0.0 682.9632545931759 191.13910761154855" fill="none" stroke="none" stroke-linecap="square" stroke-miterlimit="10" xmlns="http://www.w3.org/2000/svg" xmlns:xlink="http://www.w3.org/1999/xlink"><clipPath id="p.0"><path d="m0 0l682.96326 0l0 191.13911l-682.96326 0l0 -191.13911z" clip-rule="nonzero"></path></clipPath><g clip-path="url(#p.0)"><path fill="#000000" fill-opacity="0.0" d="m0 0l682.96326 0l0 191.13911l-682.96326 0z" fill-rule="evenodd"></path><path fill="#000000" fill-opacity="0.0" d="m210.84908 45.07152l261.25983 0l0 20.251972l-261.25983 0z" fill-rule="evenodd"></path><path fill="#345f60" d="m318.17432 69.431526l-1.5 0l0 -5.265625l-5.734375 0l0 5.265625l-1.5 0l0 -11.375004l1.5 0l0 4.890625l5.734375 0l0 -4.890625l1.5 0l0 11.375004zm10.53125 -10.140629l-3.65625 0l0 10.140629l-1.5 0l0 -10.140629l-3.640625 0l0 -1.234375l8.796875 0l0 1.234375zm9.546875 0l-3.65625 0l0 10.140629l-1.5 0l0 -10.140629l-3.640625 0l0 -1.234375l8.796875 0l0 1.234375zm3.1875 5.687504l0 4.453125l-1.5 0l0 -11.375004l4.1875 0q1.875 0 2.921875 0.953125q1.0625 0.953125 1.0625 2.515625q0 1.65625 -1.03125 2.5625038q-1.03125 0.890625 -2.96875 0.890625l-2.671875 0zm0 -1.2343788l2.6875 0q1.203125 0 1.84375 -0.5625q0.640625 -0.5625 0.640625 -1.640625q0 -1.015625 -0.640625 -1.625q-0.640625 -0.609375 -1.75 -0.625l-2.78125 0l0 4.453125zm16.929688 5.687504l-1.453125 0l0 -9.640629l-2.921875 1.078125l0 -1.3125l4.140625 -1.5625l0.234375 0l0 11.437504zm4.40625 -0.765625q0 -0.375 0.21875 -0.625q0.234375 -0.25 0.671875 -0.25q0.453125 0 0.671875 0.25q0.234375 0.25 0.234375 0.625q0 0.359375 -0.234375 0.609375q-0.21875 0.25 -0.671875 0.25q-0.4375 0 -0.671875 -0.25q-0.21875 -0.25 -0.21875 -0.609375zm8.7890625 0.765625l-1.453125 0l0 -9.640629l-2.921875 1.078125l0 -1.3125l4.140625 -1.5625l0.234375 0l0 11.437504z" fill-rule="nonzero"></path><path fill="#5cafb5" d="m12.114173 1.7119423c-5.724409 0 -10.259842 4.6430445 -10.259842 10.367454l0 166.43832c0 5.724411 4.5354333 10.370087 10.259842 10.370087l188.47244 0c5.724411 0 10.259842 -4.6456757 10.259842 -10.370087l0 -166.43832c0 -5.7244096 -4.535431 -10.367454 -10.259842 -10.367454z" fill-rule="evenodd"></path><path fill="#345f60" d="m22.484251 14.5649605c-4.3202095 0 -7.776902 3.5643044 -7.776902 7.776903l0 56.81102c0 4.3202133 3.4566927 7.7769012 7.776902 7.7769012l167.73491 0c4.3202057 0 7.7769012 -3.456688 7.7769012 -7.7769012l0 -56.81102c0 -4.212599 -3.4566956 -7.776903 -7.7769012 -7.776903z" fill-rule="evenodd"></path><path fill="#5cafb5" d="m482.37665 2.253937c-5.7244263 0 -10.259857 4.6430445 -10.259857 10.367455l0 166.43832c0 5.724411 4.535431 10.370087 10.259857 10.370087l188.47241 0c5.7244263 0 10.259888 -4.6456757 10.259888 -10.370087l0 -166.43832c0 -5.7244096 -4.5354614 -10.367455 -10.259888 -10.367455z" fill-rule="evenodd"></path><path fill="#000000" fill-opacity="0.0" d="m474.08267 28.504593l183.2756 0l0 42.866142l-183.2756 0z" fill-rule="evenodd"></path><path fill="#000000" fill-opacity="0.0" d="m14.713911 14.561748l183.27559 0l0 72.37795l-183.27559 0z" fill-rule="evenodd"></path><path fill="#ffffff" d="m43.10593 46.670723l-1.796875 0l0 -6.25l-6.8125 0l0 6.25l-1.78125 0l0 -13.515625l1.78125 0l0 5.8125l6.8125 0l0 -5.8125l1.796875 0l0 13.515625zm8.846741 0q-0.15625 -0.296875 -0.25 -1.0625q-1.1875 1.25 -2.859375 1.25q-1.484375 0 -2.4375 -0.84375q-0.9375 -0.84375 -0.9375 -2.125q0 -1.5625 1.1875 -2.4375q1.1875 -0.875 3.359375 -0.875l1.671875 0l0 -0.78125q0 -0.90625 -0.546875 -1.4375q-0.53125 -0.53125 -1.578125 -0.53125q-0.921875 0 -1.546875 0.46875q-0.625 0.46875 -0.625 1.125l-1.71875 0q0 -0.75 0.53125 -1.453125q0.53125 -0.703125 1.4375 -1.109375q0.921875 -0.40625 2.015625 -0.40625q1.734375 0 2.71875 0.875q0.984375 0.859375 1.015625 2.375l0 4.625q0 1.375 0.359375 2.1875l0 0.15625l-1.796875 0zm-2.859375 -1.3125q0.8125 0 1.53125 -0.40625q0.734375 -0.421875 1.0625 -1.09375l0 -2.0625l-1.359375 0q-3.140625 0 -3.140625 1.84375q0 0.8125 0.53125 1.265625q0.53125 0.453125 1.375 0.453125zm8.42923 -8.71875l0.0625 1.25q1.140625 -1.4375 3.0 -1.4375q3.1875 0 3.203125 3.578125l0 6.640625l-1.703125 0l0 -6.640625q-0.015625 -1.09375 -0.5 -1.609375q-0.484375 -0.515625 -1.515625 -0.515625q-0.84375 0 -1.46875 0.453125q-0.625 0.4375 -0.984375 1.15625l0 7.15625l-1.71875 0l0 -10.03125l1.625 0zm8.2468605 4.921875q0 -2.296875 1.09375 -3.703125q1.109375 -1.40625 2.875 -1.40625q1.765625 0 2.796875 1.203125l0 -5.234375l1.71875 0l0 14.25l-1.578125 0l-0.09375 -1.078125q-1.03125 1.265625 -2.859375 1.265625q-1.75 0 -2.859375 -1.421875q-1.09375 -1.4375 -1.09375 -3.734375l0 -0.140625zm1.71875 0.203125q0 1.703125 0.703125 2.671875q0.71875 0.96875 1.953125 0.96875q1.640625 0 2.390625 -1.46875l0 -4.609375q-0.78125 -1.421875 -2.375 -1.421875q-1.25 0 -1.96875 0.984375q-0.703125 0.96875 -0.703125 2.875zm18.11522 2.546875l1.921875 -7.671875l1.71875 0l-2.921875 10.03125l-1.390625 0l-2.4375 -7.609375l-2.375 7.609375l-1.390625 0l-2.90625 -10.03125l1.703125 0l1.96875 7.5l2.34375 -7.5l1.375 0l2.390625 7.671875zm9.988266 -6.140625q-0.390625 -0.0625 -0.84375 -0.0625q-1.6875 0 -2.296875 1.4375l0 7.125l-1.71875 0l0 -10.03125l1.671875 0l0.03125 1.15625q0.84375 -1.34375 2.390625 -1.34375q0.5 0 0.765625 0.125l0 1.59375zm3.3128815 8.5l-1.703125 0l0 -10.03125l1.703125 0l0 10.03125zm-1.84375 -12.703125q0 -0.421875 0.25 -0.703125q0.25 -0.28125 0.75 -0.28125q0.515625 0 0.765625 0.28125q0.265625 0.28125 0.265625 0.703125q0 0.421875 -0.265625 0.703125q-0.25 0.265625 -0.765625 0.265625q-0.5 0 -0.75 -0.265625q-0.25 -0.28125 -0.25 -0.703125zm6.83992 0.234375l0 2.4375l1.875 0l0 1.3125l-1.875 0l0 6.234375q0 0.59375 0.25 0.90625q0.25 0.296875 0.859375 0.296875q0.296875 0 0.8125 -0.109375l0 1.390625q-0.671875 0.1875 -1.3125 0.1875q-1.15625 0 -1.75 -0.6875q-0.578125 -0.703125 -0.578125 -1.984375l0 -6.234375l-1.828125 0l0 -1.3125l1.828125 0l0 -2.4375l1.71875 0zm6.0942535 0l0 2.4375l1.875 0l0 1.3125l-1.875 0l0 6.234375q0 0.59375 0.25 0.90625q0.25 0.296875 0.859375 0.296875q0.296875 0 0.8125 -0.109375l0 1.390625q-0.671875 0.1875 -1.3125 0.1875q-1.15625 0 -1.75 -0.6875q-0.578125 -0.703125 -0.578125 -1.984375l0 -6.234375l-1.828125 0l0 -1.3125l1.828125 0l0 -2.4375l1.71875 0zm7.9380035 12.65625q-2.046875 0 -3.328125 -1.34375q-1.28125 -1.34375 -1.28125 -3.578125l0 -0.328125q0 -1.484375 0.5625 -2.65625q0.578125 -1.171875 1.59375 -1.828125q1.03125 -0.671875 2.234375 -0.671875q1.953125 0 3.03125 1.296875q1.09375 1.28125 1.09375 3.6875l0 0.703125l-6.796875 0q0.03125 1.484375 0.859375 2.40625q0.84375 0.90625 2.125 0.90625q0.90625 0 1.53125 -0.359375q0.640625 -0.375 1.109375 -0.984375l1.046875 0.8125q-1.265625 1.9375 -3.78125 1.9375zm-0.21875 -9.0q-1.03125 0 -1.75 0.765625q-0.703125 0.75 -0.859375 2.109375l5.015625 0l0 -0.125q-0.0625 -1.3125 -0.703125 -2.03125q-0.625 -0.71875 -1.703125 -0.71875zm7.5556793 -1.21875l0.0625 1.25q1.140625 -1.4375 2.9999924 -1.4375q3.1875 0 3.203125 3.578125l0 6.640625l-1.703125 0l0 -6.640625q-0.015625 -1.09375 -0.5 -1.609375q-0.484375 -0.515625 -1.5156174 -0.515625q-0.84375 0 -1.46875 0.453125q-0.625 0.4375 -0.984375 1.15625l0 7.15625l-1.71875 0l0 -10.03125l1.625 0zm18.506004 4.5625l-3.1718903 0l0 5.46875l-1.78125 0l0 -13.515625l4.4687653 0q2.28125 0 3.5 1.046875q1.234375 1.03125 1.234375 3.03125q0 1.25 -0.6875 2.1875q-0.671875 0.9375 -1.890625 1.40625l3.171875 5.734375l0 0.109375l-1.90625 0l-2.9375 -5.46875zm-3.1718903 -1.453125l2.7500153 0q1.3125 0 2.09375 -0.6875q0.796875 -0.6875 0.796875 -1.828125q0 -1.265625 -0.75 -1.921875q-0.75 -0.671875 -2.15625 -0.6875l-2.7343903 0l0 5.125zm17.34645 0.671875l-5.859375 0l0 4.796875l6.8125 0l0 1.453125l-8.59375 0l0 -13.515625l8.5 0l0 1.46875l-6.71875 0l0 4.34375l5.859375 0l0 1.453125zm6.9472046 0.234375q-2.296875 -0.671875 -3.34375 -1.625q-1.03125 -0.953125 -1.03125 -2.375q0 -1.59375 1.265625 -2.625q1.28125 -1.046875 3.328125 -1.046875q1.390625 0 2.46875 0.53125q1.09375 0.53125 1.6875 1.484375q0.609375 0.953125 0.609375 2.0625l-1.796875 0q0 -1.21875 -0.78125 -1.921875q-0.765625 -0.703125 -2.1875 -0.703125q-1.328125 0 -2.0625 0.59375q-0.734375 0.578125 -0.734375 1.609375q0 0.8125 0.703125 1.390625q0.703125 0.5625 2.375 1.046875q1.6875 0.46875 2.640625 1.046875q0.953125 0.5625 1.40625 1.328125q0.46875 0.75 0.46875 1.78125q0 1.640625 -1.28125 2.640625q-1.28125 0.984375 -3.421875 0.984375q-1.390625 0 -2.609375 -0.53125q-1.203125 -0.53125 -1.859375 -1.453125q-0.640625 -0.9375 -0.640625 -2.125l1.78125 0q0 1.234375 0.90625 1.953125q0.90625 0.703125 2.421875 0.703125q1.40625 0 2.15625 -0.578125q0.75 -0.578125 0.75 -1.5625q0 -1.0 -0.703125 -1.546875q-0.6875 -0.546875 -2.515625 -1.0625zm16.42743 -6.03125l-4.34375 0l0 12.046875l-1.78125 0l0 -12.046875l-4.328125 0l0 -1.46875l10.453125 0l0 1.46875z" fill-rule="nonzero"></path><path fill="#ffffff" d="m89.65836 68.67072l-1.703125 0l0 -14.25l1.703125 0l0 14.25zm8.87117 0q-0.15625 -0.296875 -0.25 -1.0625q-1.1875 1.25 -2.859375 1.25q-1.484375 0 -2.4375 -0.84375q-0.9375 -0.84375 -0.9375 -2.125q0 -1.5625 1.1875 -2.4375q1.1875 -0.875 3.359375 -0.875l1.671875 0l0 -0.78125q0 -0.90625 -0.546875 -1.4375q-0.53125 -0.53125 -1.578125 -0.53125q-0.921875 0 -1.546875 0.46875q-0.625 0.46875 -0.625 1.125l-1.71875 0q0 -0.75 0.53125 -1.453125q0.53125 -0.703125 1.4375 -1.109375q0.921875 -0.40625 2.015625 -0.40625q1.734375 0 2.71875 0.875q0.984375 0.859375 1.015625 2.375l0 4.625q0 1.375 0.359375 2.1875l0 0.15625l-1.796875 0zm-2.859375 -1.3125q0.8125 0 1.53125 -0.40625q0.734375 -0.421875 1.0625 -1.09375l0 -2.0625l-1.359375 0q-3.140625 0 -3.140625 1.84375q0 0.8125 0.53125 1.265625q0.53125 0.453125 1.375 0.453125zm10.08548 -1.203125l2.34375 -7.515625l1.84375 0l-4.046875 11.578125q-0.9375 2.5 -2.96875 2.5l-0.328125 -0.015625l-0.640625 -0.125l0 -1.390625l0.46875 0.03125q0.859375 0 1.34375 -0.359375q0.5 -0.34375 0.8125 -1.28125l0.375 -1.015625l-3.578125 -9.921875l1.875 0l2.5 7.515625zm9.717728 2.703125q-2.046875 0 -3.328125 -1.34375q-1.28125 -1.34375 -1.28125 -3.578125l0 -0.328125q0 -1.484375 0.5625 -2.65625q0.578125 -1.171875 1.59375 -1.828125q1.03125 -0.671875 2.234375 -0.671875q1.953125 0 3.03125 1.296875q1.09375 1.28125 1.09375 3.6875l0 0.703125l-6.796875 0q0.03125 1.484375 0.859375 2.40625q0.84375 0.90625 2.125 0.90625q0.90625 0 1.53125 -0.359375q0.640625 -0.375 1.109375 -0.984375l1.046875 0.8125q-1.265625 1.9375 -3.78125 1.9375zm-0.21875 -9.0q-1.03125 0 -1.75 0.765625q-0.703125 0.75 -0.859375 2.109375l5.015625 0l0 -0.125q-0.0625 -1.3125 -0.703125 -2.03125q-0.625 -0.71875 -1.703125 -0.71875zm10.790054 0.3125q-0.390625 -0.0625 -0.84375 -0.0625q-1.6875 0 -2.296875 1.4375l0 7.125l-1.71875 0l0 -10.03125l1.671875 0l0.03125 1.15625q0.84375 -1.34375 2.390625 -1.34375q0.5 0 0.765625 0.125l0 1.59375z" fill-rule="nonzero"></path><path fill="#000000" fill-opacity="0.0" d="m484.9672 145.85236l183.2756 0l0 42.86615l-183.2756 0z" fill-rule="evenodd"></path><path fill="#ffffff" d="m554.29724 159.25673l1.78125 0l0 9.578125q0 1.9375 -1.171875 3.03125q-1.15625 1.09375 -3.09375 1.09375q-2.015625 0 -3.140625 -1.03125q-1.125 -1.03125 -1.125 -2.890625l1.78125 0q0 1.171875 0.640625 1.828125q0.640625 0.640625 1.84375 0.640625q1.109375 0 1.78125 -0.6875q0.6875 -0.703125 0.703125 -1.96875l0 -9.59375zm8.606262 7.5q-2.296875 -0.671875 -3.34375 -1.625q-1.03125 -0.953125 -1.03125 -2.375q0 -1.59375 1.265625 -2.625q1.28125 -1.046875 3.328125 -1.046875q1.390625 0 2.46875 0.53125q1.09375 0.53125 1.6875 1.484375q0.609375 0.953125 0.609375 2.0625l-1.796875 0q0 -1.21875 -0.78125 -1.921875q-0.765625 -0.703125 -2.1875 -0.703125q-1.328125 0 -2.0625 0.59375q-0.734375 0.578125 -0.734375 1.609375q0 0.8125 0.703125 1.390625q0.703125 0.5625 2.375 1.046875q1.6875 0.46875 2.640625 1.046875q0.953125 0.5625 1.40625 1.328125q0.46875 0.75 0.46875 1.78125q0 1.640625 -1.28125 2.640625q-1.28125 0.984375 -3.421875 0.984375q-1.390625 0 -2.609375 -0.53125q-1.203125 -0.53125 -1.859375 -1.453125q-0.640625 -0.9375 -0.640625 -2.125l1.78125 0q0 1.234375 0.90625 1.953125q0.90625 0.703125 2.421875 0.703125q1.40625 0 2.15625 -0.578125q0.75 -0.578125 0.75 -1.5625q0 -1.0 -0.703125 -1.546875q-0.6875 -0.546875 -2.515625 -1.0625zm19.170898 2.484375l-5.65625 0l-1.28125 3.53125l-1.828125 0l5.15625 -13.515625l1.5625 0l5.15625 13.515625l-1.828125 0l-1.28125 -3.53125zm-5.125 -1.453125l4.59375 0l-2.296875 -6.328125l-2.296875 6.328125zm18.045288 0.078125q0 2.296875 -1.046875 3.703125q-1.046875 1.390625 -2.84375 1.390625q-1.828125 0 -2.875 -1.15625l0 4.828125l-1.71875 0l0 -13.890625l1.5625 0l0.09375 1.109375q1.046875 -1.296875 2.90625 -1.296875q1.8125 0 2.859375 1.359375q1.0625 1.359375 1.0625 3.796875l0 0.15625zm-1.71875 -0.203125q0 -1.6875 -0.734375 -2.671875q-0.71875 -0.984375 -1.96875 -0.984375q-1.5625 0 -2.34375 1.375l0 4.796875q0.765625 1.375 2.359375 1.375q1.234375 0 1.953125 -0.96875q0.734375 -0.984375 0.734375 -2.921875zm12.185608 0.203125q0 2.296875 -1.046875 3.703125q-1.046875 1.390625 -2.84375 1.390625q-1.828125 0 -2.875 -1.15625l0 4.828125l-1.71875 0l0 -13.890625l1.5625 0l0.09375 1.109375q1.046875 -1.296875 2.90625 -1.296875q1.8125 0 2.859375 1.359375q1.0625 1.359375 1.0625 3.796875l0 0.15625zm-1.71875 -0.203125q0 -1.6875 -0.734375 -2.671875q-0.71875 -0.984375 -1.96875 -0.984375q-1.5625 0 -2.34375 1.375l0 4.796875q0.765625 1.375 2.359375 1.375q1.234375 0 1.953125 -0.96875q0.734375 -0.984375 0.734375 -2.921875z" fill-rule="nonzero"></path><path fill="#000000" fill-opacity="0.0" d="m14.712599 145.85367l183.27559 0l0 42.86615l-183.27559 0z" fill-rule="evenodd"></path><path fill="#ffffff" d="m73.67522 171.00804q-0.6875 0.984375 -1.921875 1.46875q-1.234375 0.484375 -2.859375 0.484375q-1.65625 0 -2.9375 -0.765625q-1.28125 -0.78125 -1.9843788 -2.203125q-0.6875 -1.4375 -0.71875 -3.328125l0 -1.171875q0 -3.046875 1.4218788 -4.71875q1.4375 -1.6875 4.015625 -1.6875q2.109375 0 3.390625 1.078125q1.296875 1.078125 1.59375 3.0625l-1.78125 0q-0.5 -2.6875 -3.203125 -2.6875q-1.78125 0 -2.703125 1.265625q-0.921875 1.25 -0.9375 3.640625l0 1.109375q0 2.265625 1.03125 3.609375q1.046875 1.34375 2.8125 1.34375q1.015625 0 1.765625 -0.21875q0.75 -0.234375 1.234375 -0.765625l0 -3.03125l-3.125 0l0 -1.4375l4.90625 0l0 4.953125zm2.0046234 -3.34375q0 -1.484375 0.578125 -2.65625q0.578125 -1.171875 1.609375 -1.8125q1.046875 -0.640625 2.375 -0.640625q2.046875 0 3.3125 1.421875q1.265625 1.40625 1.265625 3.765625l0 0.125q0 1.46875 -0.5625 2.640625q-0.5625 1.15625 -1.609375 1.8125q-1.046875 0.640625 -2.390625 0.640625q-2.046875 0 -3.3125 -1.421875q-1.265625 -1.421875 -1.265625 -3.75l0 -0.125zm1.71875 0.203125q0 1.671875 0.78125 2.6875q0.78125 1.0 2.078125 1.0q1.296875 0 2.0625 -1.015625q0.78125 -1.03125 0.78125 -2.875q0 -1.65625 -0.78125 -2.671875q-0.78125 -1.03125 -2.078125 -1.03125q-1.28125 0 -2.0625 1.015625q-0.78125 1.0 -0.78125 2.890625zm18.242783 -1.109375q-2.296875 -0.671875 -3.34375 -1.625q-1.03125 -0.953125 -1.03125 -2.375q0 -1.59375 1.265625 -2.625q1.28125 -1.046875 3.328125 -1.046875q1.390625 0 2.46875 0.53125q1.09375 0.53125 1.6875 1.484375q0.609375 0.953125 0.609375 2.0625l-1.796875 0q0 -1.21875 -0.78125 -1.921875q-0.765625 -0.703125 -2.1875 -0.703125q-1.328125 0 -2.0625 0.59375q-0.734375 0.578125 -0.734375 1.609375q0 0.8125 0.703125 1.390625q0.703125 0.5625 2.375 1.046875q1.6875 0.46875 2.640625 1.046875q0.953125 0.5625 1.40625 1.328125q0.46875 0.75 0.46875 1.78125q0 1.640625 -1.28125 2.640625q-1.28125 0.984375 -3.421875 0.984375q-1.390625 0 -2.609375 -0.53125q-1.203125 -0.53125 -1.859375 -1.453125q-0.640625 -0.9375 -0.640625 -2.125l1.78125 0q0 1.234375 0.90625 1.953125q0.90625 0.703125 2.421875 0.703125q1.40625 0 2.15625 -0.578125q0.75 -0.578125 0.75 -1.5625q0 -1.0 -0.703125 -1.546875q-0.6875 -0.546875 -2.515625 -1.0625zm10.989914 6.203125q-2.046875 0 -3.328125 -1.34375q-1.28125 -1.34375 -1.28125 -3.578125l0 -0.328125q0 -1.484375 0.5625 -2.65625q0.578125 -1.171875 1.59375 -1.828125q1.03125 -0.671875 2.234375 -0.671875q1.953125 0 3.03125 1.296875q1.09375 1.28125 1.09375 3.6875l0 0.703125l-6.796875 0q0.03125 1.484375 0.859375 2.40625q0.84375 0.90625 2.125 0.90625q0.90625 0 1.53125 -0.359375q0.640625 -0.375 1.109375 -0.984375l1.046875 0.8125q-1.265625 1.9375 -3.78125 1.9375zm-0.21875 -9.0q-1.03125 0 -1.75 0.765625q-0.703125 0.75 -0.859375 2.109375l5.015625 0l0 -0.125q-0.0625 -1.3125 -0.703125 -2.03125q-0.625 -0.71875 -1.703125 -0.71875zm10.790054 0.3125q-0.390625 -0.0625 -0.84375 -0.0625q-1.6875 0 -2.296875 1.4375l0 7.125l-1.71875 0l0 -10.03125l1.671875 0l0.03125 1.15625q0.84375 -1.34375 2.390625 -1.34375q0.5 0 0.765625 0.125l0 1.59375zm4.7660065 6.171875l2.484375 -7.703125l1.75 0l-3.59375 10.03125l-1.3125 0l-3.625 -10.03125l1.75 0l2.546875 7.703125zm7.583496 2.328125l-1.703125 0l0 -10.03125l1.703125 0l0 10.03125zm-1.84375 -12.703125q0 -0.421875 0.25 -0.703125q0.25 -0.28125 0.75 -0.28125q0.515625 0 0.765625 0.28125q0.265625 0.28125 0.265625 0.703125q0 0.421875 -0.265625 0.703125q-0.25 0.265625 -0.765625 0.265625q-0.5 0 -0.75 -0.265625q-0.25 -0.28125 -0.25 -0.703125zm8.543045 11.484375q0.921875 0 1.59375 -0.546875q0.6875 -0.5625 0.765625 -1.390625l1.625 0q-0.046875 0.859375 -0.59375 1.640625q-0.546875 0.765625 -1.46875 1.234375q-0.90625 0.46875 -1.921875 0.46875q-2.046875 0 -3.265625 -1.359375q-1.203125 -1.375 -1.203125 -3.75l0 -0.296875q0 -1.46875 0.53125 -2.609375q0.546875 -1.140625 1.546875 -1.765625q1.0 -0.625 2.375 -0.625q1.6875 0 2.796875 1.015625q1.125 1.0 1.203125 2.609375l-1.625 0q-0.078125 -0.96875 -0.734375 -1.59375q-0.65625 -0.625 -1.640625 -0.625q-1.296875 0 -2.03125 0.9375q-0.71875 0.9375 -0.71875 2.71875l0 0.328125q0 1.734375 0.71875 2.671875q0.71875 0.9375 2.046875 0.9375zm9.906006 1.40625q-2.046875 0 -3.328125 -1.34375q-1.28125 -1.34375 -1.28125 -3.578125l0 -0.328125q0 -1.484375 0.5625 -2.65625q0.578125 -1.171875 1.59375 -1.828125q1.03125 -0.671875 2.234375 -0.671875q1.953125 0 3.03125 1.296875q1.09375 1.28125 1.09375 3.6875l0 0.703125l-6.796875 0q0.03125 1.484375 0.859375 2.40625q0.84375 0.90625 2.125 0.90625q0.90625 0 1.53125 -0.359375q0.640625 -0.375 1.109375 -0.984375l1.046875 0.8125q-1.265625 1.9375 -3.78125 1.9375zm-0.21875 -9.0q-1.03125 0 -1.75 0.765625q-0.703125 0.75 -0.859375 2.109375l5.015625 0l0 -0.125q-0.0625 -1.3125 -0.703125 -2.03125q-0.625 -0.71875 -1.703125 -0.71875z" fill-rule="nonzero"></path><path fill="#000000" fill-opacity="0.0" d="m197.9895 50.750725c69.02362 0 103.53543 -0.20472717 138.04724 -0.40945053c34.51181 -0.20472336 69.02362 -0.40944672 138.04724 -0.40944672" fill-rule="evenodd"></path><path stroke="#345f60" stroke-width="3.0" stroke-linejoin="round" stroke-linecap="butt" d="m215.9895 50.74521l6.3335114 -0.0036811829c7.616867 -0.006000519 14.761902 -0.014797211 21.502487 -0.025993347c13.481171 -0.022388458 25.344604 -0.05437851 36.129547 -0.09276581c21.569885 -0.07677078 38.825806 -0.17913055 56.081696 -0.28149414c17.25592 -0.10236359 34.51181 -0.20472336 56.081696 -0.28149796c10.784943 -0.038383484 22.648376 -0.070373535 36.129547 -0.09276581c6.7406006 -0.011192322 13.88562 -0.019992828 21.502472 -0.025989532l6.3335266 -0.0036811829" fill-rule="evenodd"></path><path fill="#345f60" stroke="#345f60" stroke-width="3.0" stroke-linecap="butt" d="m215.98798 45.79001l-13.612762 4.9593697l13.615799 4.951023z" fill-rule="evenodd"></path><path fill="#345f60" stroke="#345f60" stroke-width="3.0" stroke-linecap="butt" d="m456.0855 54.89254l13.612762 -4.9593697l-13.615814 -4.951023z" fill-rule="evenodd"></path><path fill="#000000" fill-opacity="0.0" d="m210.84908 16.819553l263.24408 0l0 20.251968l-263.24408 0z" fill-rule="evenodd"></path><path fill="#345f60" d="m328.2016 29.804554l1.5 0l0 8.046875q0 1.640625 -0.984375 2.5625q-0.96875 0.921875 -2.609375 0.921875q-1.6875 0 -2.640625 -0.859375q-0.9375 -0.875 -0.9375 -2.4375l1.5 0q0 0.96875 0.53125 1.515625q0.53125 0.546875 1.546875 0.546875q0.9375 0 1.5 -0.578125q0.578125 -0.59375 0.59375 -1.640625l0 -8.078125zm7.40625 6.296875q-1.921875 -0.546875 -2.8125 -1.359375q-0.875 -0.8125 -0.875 -2.0q0 -1.34375 1.078125 -2.21875q1.078125 -0.875 2.796875 -0.875q1.171875 0 2.078125 0.453125q0.921875 0.453125 1.421875 1.25q0.515625 0.796875 0.515625 1.734375l-1.515625 0q0 -1.03125 -0.65625 -1.609375q-0.65625 -0.59375 -1.84375 -0.59375q-1.109375 0 -1.734375 0.484375q-0.625 0.484375 -0.625 1.359375q0 0.6875 0.59375 1.171875q0.59375 0.484375 2.0 0.890625q1.421875 0.390625 2.21875 0.875q0.8125 0.46875 1.1875 1.109375q0.390625 0.640625 0.390625 1.515625q0 1.375 -1.078125 2.21875q-1.078125 0.828125 -2.875 0.828125q-1.171875 0 -2.1875 -0.453125q-1.015625 -0.453125 -1.578125 -1.234375q-0.546875 -0.78125 -0.546875 -1.765625l1.515625 0q0 1.03125 0.75 1.625q0.765625 0.59375 2.046875 0.59375q1.1875 0 1.8125 -0.484375q0.640625 -0.484375 0.640625 -1.3125q0 -0.84375 -0.59375 -1.296875q-0.578125 -0.453125 -2.125 -0.90625zm14.8984375 -0.25q0 1.671875 -0.5625 2.921875q-0.5625 1.25 -1.59375 1.90625q-1.03125 0.65625 -2.40625 0.65625q-1.34375 0 -2.390625 -0.65625q-1.03125 -0.671875 -1.609375 -1.890625q-0.578125 -1.21875 -0.59375 -2.828125l0 -0.828125q0 -1.640625 0.5625 -2.890625q0.578125 -1.265625 1.625 -1.921875q1.046875 -0.671875 2.390625 -0.671875q1.359375 0 2.40625 0.65625q1.046875 0.65625 1.609375 1.921875q0.5625 1.25 0.5625 2.90625l0 0.71875zm-1.5 -0.734375q0 -2.015625 -0.8125 -3.09375q-0.8125 -1.09375 -2.265625 -1.09375q-1.421875 0 -2.25 1.09375q-0.8125 1.078125 -0.828125 3.0l0 0.828125q0 1.96875 0.8125 3.09375q0.828125 1.109375 2.28125 1.109375q1.453125 0 2.25 -1.046875q0.796875 -1.0625 0.8125 -3.046875l0 -0.84375zm12.484375 6.0625l-1.5 0l-5.734375 -8.765625l0 8.765625l-1.5 0l0 -11.375l1.5 0l5.75 8.796875l0 -8.796875l1.484375 0l0 11.375z" fill-rule="nonzero"></path></g></svg>

