<?xml version="1.0" encoding="iso-8859-1"?>
<!-- Generator: Adobe Illustrator 16.0.0, SVG Export Plug-In . SVG Version: 6.00 Build 0)  -->
<!DOCTYPE svg PUBLIC "-//W3C//DTD SVG 1.1//EN" "http://www.w3.org/Graphics/SVG/1.1/DTD/svg11.dtd">
<svg version="1.1" id="Capa_1" xmlns="http://www.w3.org/2000/svg" xmlns:xlink="http://www.w3.org/1999/xlink" x="0px" y="0px"
	 width="266.644px" height="266.645px" viewBox="0 0 266.644 266.645" style="enable-background:new 0 0 266.644 266.645;"
	 xml:space="preserve">
<g>
	<g>
		<path d="M251.217,176.753c-9.945-9.944-23.161-15.424-37.227-15.424c-5.927,0-11.69,1.034-17.138,2.902l-27.337-27.343
			c7.307-7.331,14.6-14.647,21.755-21.825l21.279,21.284c0.681,0.678,1.577,1.026,2.478,1.026c0.77,0,1.536-0.253,2.18-0.763
			l48.112-38.193c0.78-0.619,1.263-1.545,1.317-2.544c0.059-0.998-0.312-1.968-1.02-2.676l-25.174-25.175
			c2.971-2.996,4.884-4.952,6.033-6.256c0.284-0.164,0.609-0.405,0.821-0.623c4.593-4.591,2.263-13.846-5.424-21.534
			c-7.187-7.185-16.393-9.787-21.05-5.874c-0.616,0.151-1.184,0.467-1.643,0.926l-6.05,6.052l-27.737-27.74
			c-0.708-0.705-1.687-1.08-2.68-1.023c-0.999,0.06-1.923,0.536-2.546,1.318l-38.198,48.104c-1.105,1.395-0.992,3.398,0.268,4.658
			l21.569,21.568l-21.796,21.791l-39.611-39.613c6.5-18.93,1.626-40.215-12.496-54.34C79.962,5.495,66.744,0.022,52.682,0.022
			c-6.88,0-13.586,1.314-19.932,3.903c-1.087,0.441-1.879,1.401-2.113,2.551c-0.231,1.15,0.128,2.341,0.957,3.171l24.895,24.901
			L55.38,55.383l-20.834,1.11L9.645,31.595c-0.83-0.83-2.017-1.188-3.17-0.957s-2.11,1.027-2.551,2.113
			c-8.032,19.694-3.508,42.125,11.519,57.152c9.905,9.909,23.086,15.366,37.12,15.366c0,0,0,0,0.003,0
			c5.877,0,11.623-1.017,17.17-2.919l39.673,39.661l-74.958,74.956c-0.582,0.582-0.91,1.352-0.973,2.156
			c-4.032,7.494-2.717,16.953,3.398,23.052c3.691,3.695,8.6,5.729,13.822,5.729c3.251,0,6.415-0.801,9.243-2.32
			c0.812-0.072,1.588-0.425,2.176-1.013l2.18-2.197l0,0c0.067-0.059,0.133-0.116,0.2-0.188c0.021-0.021,0.041-0.041,0.062-0.062
			c0,0,32.805-32.891,72.387-72.577l27.302,27.302c-6.525,18.979-1.759,40.081,12.508,54.358
			c9.952,9.944,23.172,15.416,37.233,15.416c14.065,0,27.281-5.472,37.227-15.416c9.948-9.938,15.427-23.158,15.427-37.224
			C266.648,199.921,261.166,186.698,251.217,176.753z M223.336,40.423c1.048-0.407,1.783-1.101,1.961-1.283
			c0.195-0.192,0.641-0.305,1.219-0.305c2.323,0,6.44,1.772,10.406,5.737c5.274,5.273,6.235,10.225,5.507,11.497
			c-0.007,0.007-0.014,0.01-0.021,0.019c-0.147,0.121-0.284,0.251-0.407,0.395c-0.425,0.445-2.673,2.719-6.369,6.447l-16.423-18.372
			L223.336,40.423z M52.566,98.254c-12.163,0-23.584-4.731-32.165-13.312C8.661,73.205,4.318,56.252,8.668,40.521L30.7,62.552
			c0.7,0.705,1.686,1.086,2.663,1.023l25.54-1.363c1.787-0.094,3.217-1.525,3.311-3.311l1.36-25.54
			c0.053-0.991-0.318-1.963-1.023-2.663L40.521,8.667c3.942-1.087,8.015-1.636,12.157-1.636c12.188,0,23.647,4.743,32.268,13.356
			c12.329,12.335,16.533,30.969,10.711,47.474c-0.081,0.231-0.182,0.456-0.279,0.68c-0.12,0.277-0.24,0.551-0.341,0.812
			c-2.347,5.992-5.744,11.235-10.095,15.581c-4.013,4.013-8.737,7.219-14.106,9.56c-0.251,0.115-0.512,0.212-0.773,0.312
			l-0.084,0.031l-0.588,0.228C64.018,97.181,58.358,98.254,52.566,98.254L52.566,98.254z M77.573,98.99
			c0.476-0.251,0.939-0.522,1.405-0.789c0.876-0.504,1.738-1.026,2.579-1.579c0.452-0.294,0.909-0.594,1.354-0.905
			c0.866-0.602,1.703-1.241,2.525-1.896c0.368-0.291,0.745-0.568,1.104-0.869c1.16-0.97,2.289-1.983,3.362-3.06
			c1.134-1.134,2.197-2.337,3.217-3.572c0.311-0.377,0.602-0.769,0.903-1.153c0.719-0.922,1.405-1.869,2.06-2.842
			c0.281-0.417,0.564-0.83,0.835-1.254c0.763-1.209,1.482-2.45,2.151-3.73c0.091-0.174,0.197-0.339,0.288-0.513
			c0.021-0.043,0.046-0.082,0.066-0.124l37.378,37.38l-22.706,22.703L76.755,99.448C77.036,99.305,77.296,99.137,77.573,98.99z
			 M183.222,20.711l74.661,74.663l-42.582,33.806l-21.546-21.553c-0.003,0-0.003,0-0.003-0.003l-22.501-22.5l0,0l-21.837-21.835
			L183.222,20.711z M59.905,236.874c-0.137,0.099-0.25,0.208-0.4,0.4l-1.201,1.201c-0.253,0.092-0.495,0.215-0.722,0.365
			c-4.818,3.18-11.635,2.499-15.752-1.621c-4.177-4.165-4.861-10.773-1.629-15.701c0.151-0.232,0.272-0.486,0.358-0.746
			l128.209-128.21l17.549,17.551c-7.611,7.635-15.396,15.436-23.165,23.236c-0.499,0.171-0.961,0.425-1.341,0.801l-27.619,27.702
			c-0.388,0.391-0.638,0.855-0.803,1.342C95.403,201.29,63.323,233.448,59.905,236.874z M164.572,141.851l24.479,24.485
			c-4.299,2.375-8.203,5.312-11.656,8.768c-4.236,4.233-7.692,9.202-10.267,14.719l-25.231-25.235
			C149.312,157.147,156.926,149.517,164.572,141.851z M246.262,246.254c-8.621,8.62-20.078,13.367-32.271,13.367
			c-12.189,0-23.653-4.747-32.277-13.367c-12.71-12.717-16.748-31.683-10.383-48.476c0.119-0.201,0.219-0.414,0.298-0.64
			c0.126-0.355,0.283-0.708,0.434-1.061l0.291-0.688c2.313-5.178,5.469-9.78,9.367-13.682c8.62-8.62,20.081-13.37,32.271-13.37
			c12.193,0,23.65,4.75,32.271,13.37c8.624,8.621,13.373,20.085,13.373,32.278C259.639,226.173,254.886,237.637,246.262,246.254z"/>
		<path d="M222.632,188.539c-0.891-0.887-2.167-1.235-3.389-0.907l-22.977,6.153c-1.208,0.325-2.155,1.267-2.478,2.478l-0.726,2.711
			l-5.427,20.255c-0.325,1.208,0.021,2.499,0.906,3.385l16.816,16.823c0.664,0.664,1.561,1.027,2.478,1.027
			c0.302,0,0.609-0.041,0.907-0.124l22.977-6.159c1.211-0.329,2.152-1.27,2.478-2.479l6.156-22.973
			c0.325-1.208-0.021-2.501-0.906-3.385L222.632,188.539z M208.885,233.051l-13.945-13.959l4.496-16.81l0.603-2.248l19.062-5.106
			l13.956,13.945l-5.106,19.059L208.885,233.051z"/>
	</g>
</g>
<g>
</g>
<g>
</g>
<g>
</g>
<g>
</g>
<g>
</g>
<g>
</g>
<g>
</g>
<g>
</g>
<g>
</g>
<g>
</g>
<g>
</g>
<g>
</g>
<g>
</g>
<g>
</g>
<g>
</g>
</svg>
