<?xml version="1.0" encoding="iso-8859-1"?>
<!-- Generator: Adobe Illustrator 19.0.0, SVG Export Plug-In . SVG Version: 6.00 Build 0)  -->
<svg version="1.1" id="Layer_1" xmlns="http://www.w3.org/2000/svg" xmlns:xlink="http://www.w3.org/1999/xlink" x="0px" y="0px"
	 viewBox="0 0 512 512" style="enable-background:new 0 0 512 512;" xml:space="preserve">
<g>
	<path style="fill:#26443E;" d="M161.105,484.404c0,15.241-12.355,27.595-27.591,27.595H78.286
		c-15.237,0-27.591-12.355-27.591-27.595l0,0c0-15.237,12.355-27.591,27.591-27.591h55.223
		C148.75,456.813,161.105,469.164,161.105,484.404L161.105,484.404z"/>
	<path style="fill:#26443E;" d="M461.301,484.404c0,15.241-12.355,27.595-27.591,27.595h-55.223
		c-15.237,0-27.591-12.355-27.591-27.595l0,0c0-15.237,12.355-27.591,27.591-27.591h55.223
		C448.947,456.813,461.301,469.164,461.301,484.404L461.301,484.404z"/>
</g>
<path style="fill:#416B62;" d="M505.264,476.013c0,4.19-3.398,7.592-7.592,7.592H14.329c-4.194,0-7.592-3.403-7.592-7.592V7.592
	C6.732,3.398,10.135,0,14.329,0h483.339c4.194,0,7.592,3.398,7.592,7.592v468.421H505.264z"/>
<g style="opacity:0.6;">
	<path style="fill:#65A598;" d="M459.231,414.659c0,16.774-13.598,30.372-30.372,30.372H83.138
		c-16.774,0-30.372-13.598-30.372-30.372V68.942c0-16.774,13.598-30.372,30.372-30.372h345.721
		c16.774,0,30.372,13.598,30.372,30.372V414.659z"/>
</g>
<g>
	<rect x="246.814" y="116.142" style="fill:#416B62;" width="18.389" height="101.995"/>
	<polygon style="fill:#416B62;" points="222.455,247.649 148.375,310.448 166.295,318.888 240.376,256.089 	"/>
	<polygon style="fill:#416B62;" points="289.541,247.649 271.62,256.089 345.701,318.888 363.621,310.448 	"/>
</g>
<g>
	<path style="fill:#26443E;" d="M256,108.893c-73.402,0-132.908,59.506-132.908,132.908S182.598,374.709,256,374.709
		s132.908-59.506,132.908-132.908S329.398,108.893,256,108.893z M256,340.514c-54.521,0-98.717-44.192-98.717-98.713
		s44.196-98.713,98.717-98.713c54.517,0,98.713,44.192,98.713,98.713S310.517,340.514,256,340.514z"/>
	<path style="fill:#26443E;" d="M256,208.284c-18.514,0-33.521,15.007-33.521,33.521s15.007,33.521,33.521,33.521
		c18.51,0,33.521-15.007,33.521-33.521S274.51,208.284,256,208.284z"/>
</g>
<g style="opacity:0.5;">
	<path style="fill:#5F7C77;" d="M256,225.232c-9.154,0-16.569,7.419-16.569,16.569s7.419,16.569,16.569,16.569
		c9.15,0,16.569-7.419,16.569-16.569S265.15,225.232,256,225.232z"/>
</g>
<g>
	<path style="fill:#26443E;" d="M64.575,202.476c0,6.523-5.287,11.81-11.81,11.81l0,0c-6.522,0-11.81-5.287-11.81-11.81v-73.572
		c0-6.518,5.287-11.81,11.81-11.81l0,0c6.522,0,11.81,5.291,11.81,11.81C64.575,128.904,64.575,202.476,64.575,202.476z"/>
	<path style="fill:#26443E;" d="M64.575,383.092c0,6.522-5.287,11.814-11.81,11.814l0,0c-6.522,0-11.81-5.291-11.81-11.814v-73.568
		c0-6.522,5.287-11.81,11.81-11.81l0,0c6.522,0,11.81,5.287,11.81,11.81C64.575,309.524,64.575,383.092,64.575,383.092z"/>
</g>
<g>
</g>
<g>
</g>
<g>
</g>
<g>
</g>
<g>
</g>
<g>
</g>
<g>
</g>
<g>
</g>
<g>
</g>
<g>
</g>
<g>
</g>
<g>
</g>
<g>
</g>
<g>
</g>
<g>
</g>
</svg>
